PathFileType	4	(X/Y/Z)	s02c0302.trc
DataRate	CameraRate	NumFrames	NumMarkers	Units	OrigDataRate	OrigDataStartFrame	OrigNumFrames
200	200	4	51	mm	200	1750	2000
Frame#	Time	racr			lacr			c7			jug			rlel			rdr			llel			ldr			s2			lic			ric			lasi			rasi			rpsi			lpsi			rgt			lgt			rth1			rth2			rth3			rth4			rlfc			rmfc			rsh1			rsh2			rsh3			rsh4			rlmal			rmmal			rcal			rtoe			rmt5			rmt1			lth1			lth2			lth4			lth3			llfc			lmfc			lsh1			lsh2			lsh3			lsh4			llmal			lmmal			lcal			ltoe			lmt5			SBIKE			LBIKE			RBIKE			
		X1	Y1	Z1	X2	Y2	Z2	X3	Y3	Z3	X4	Y4	Z4	X5	Y5	Z5	X6	Y6	Z6	X7	Y7	Z7	X8	Y8	Z8	X9	Y9	Z9	X10	Y10	Z10	X11	Y11	Z11	X12	Y12	Z12	X13	Y13	Z13	X14	Y14	Z14	X15	Y15	Z15	X16	Y16	Z16	X17	Y17	Z17	X18	Y18	Z18	X19	Y19	Z19	X20	Y20	Z20	X21	Y21	Z21	X22	Y22	Z22	X23	Y23	Z23	X24	Y24	Z24	X25	Y25	Z25	X26	Y26	Z26	X27	Y27	Z27	X28	Y28	Z28	X29	Y29	Z29	X30	Y30	Z30	X31	Y31	Z31	X32	Y32	Z32	X33	Y33	Z33	X34	Y34	Z34	X35	Y35	Z35	X36	Y36	Z36	X37	Y37	Z37	X38	Y38	Z38	X39	Y39	Z39	X40	Y40	Z40	X41	Y41	Z41	X42	Y42	Z42	X43	Y43	Z43	X44	Y44	Z44	X45	Y45	Z45	X46	Y46	Z46	X47	Y47	Z47	X48	Y48	Z48	X49	Y49	Z49	X50	Y50	Z50	X51	Y51	Z51	
1750	8.7500	683.245163	1230.563917	-72.095083	782.791044	1189.642143	-404.980889	741.930948	1245.306210	-237.724163	658.997115	1131.206922	-242.044826	587.146316	980.805706	-25.694368	724.553488	850.108472	-114.977293	658.233409	1036.718595	-616.315269	729.443546	849.648476	-528.613602	216.263317	1193.482506	-370.354289	360.715097	1138.357688	-484.418688	310.450847	1191.017674	-195.723442	386.188006	1098.955721	-445.050478	360.588634	1160.510150	-223.953984	228.957843	1224.156154	-331.765730	256.808641	1217.445847	-413.626767	281.368102	1127.564750	-158.304910	276.234184	1057.294166	-508.344325	368.193901	1092.399526	-148.738455	451.795972	1064.291475	-149.026454	510.628480	1011.353169	-116.698341	468.625469	1083.893266	-176.678027	616.563042	904.333350	-140.223591	610.977369	880.280251	-254.544953	570.836518	804.738508	-125.240486	527.966806	728.779566	-140.389393	453.307160	683.488435	-137.516409	539.120986	720.197277	-178.343310	359.065947	596.529899	-143.351159	373.431083	613.302597	-223.064801	270.411095	592.979295	-182.704544	509.775306	438.447939	-199.492598	411.491852	478.845180	-131.565567	436.530289	478.797204	-241.282647	329.652382	930.247400	-525.078599	362.991544	849.535878	-524.989830	396.473454	854.099543	-510.828569	349.502373	761.655807	-526.483669	362.455780	664.086022	-504.787955	360.892855	633.058781	-405.543926	316.881077	573.052586	-527.270740	303.202616	488.937138	-513.052932	245.456778	418.932440	-513.149162	323.594116	482.912990	-477.952304	196.563376	326.409177	-498.625111	210.509577	321.088935	-422.437103	124.031580	335.474544	-456.979170	304.838870	110.557154	-438.218343	219.413507	170.097394	-507.261237	-129.223148	869.769400	-314.272667	32.495998	82.340955	-515.251612	32.283447	82.804399	-115.226021	
1751	8.7550	681.963952	1226.858774	-69.187622	783.426173	1189.948096	-401.446134	741.610745	1243.849913	-234.323137	658.956246	1129.419722	-240.126360	583.531873	978.465161	-26.205145	723.745533	850.590048	-114.647647	661.846740	1038.317731	-615.213318	729.950785	849.281964	-528.498785	217.259170	1197.327199	-370.543995	361.572894	1142.328698	-485.068646	310.253904	1192.324209	-196.093077	387.022551	1102.090820	-446.454618	360.324166	1161.733420	-224.267910	230.562642	1227.224317	-331.945864	258.318626	1221.951532	-413.732807	280.822333	1128.935769	-159.713964	276.850986	1060.270325	-508.763094	367.066205	1092.535203	-148.703213	450.251669	1063.029533	-148.195225	507.979069	1008.912561	-115.776172	467.487841	1082.502010	-175.694458	613.628711	901.125109	-138.557615	607.521561	876.598089	-252.705428	567.647040	800.079982	-123.813620	524.983719	723.415896	-139.856200	452.551550	675.916171	-137.073292	537.898581	715.089293	-176.694404	360.365963	587.672417	-143.165258	374.176489	604.877476	-223.001832	271.990916	580.119577	-182.101671	518.114889	437.526030	-198.978599	418.059203	472.548291	-130.888444	443.096527	474.577946	-240.520433	332.567287	933.763891	-526.034652	367.385696	853.633205	-525.921394	400.718253	858.765223	-511.653672	355.506331	765.543541	-527.572201	369.150643	667.677449	-506.017247	368.303226	636.342282	-406.916576	321.945808	577.129804	-528.355739	305.892531	493.410763	-513.904031	246.445625	424.976243	-514.262539	326.056997	486.912033	-478.810903	194.340952	333.599959	-499.802030	208.675757	327.502558	-423.578155	122.410447	344.943460	-457.202652	295.299993	114.455885	-438.246552	211.482202	176.169074	-507.292327	-129.086551	869.870088	-313.939167	32.541335	82.463826	-515.300744	32.483071	82.561008	-115.282075	
1752	8.7600	680.747043	1223.336678	-66.487111	783.941304	1190.588843	-398.231080	741.181734	1242.648110	-231.239074	659.086494	1127.715840	-238.400219	580.315133	976.233487	-26.710665	722.828464	851.055086	-114.524927	664.964591	1039.352611	-613.688024	730.447404	848.967029	-528.397924	218.393907	1201.247514	-370.569363	362.451731	1146.172497	-485.705958	309.836834	1193.152044	-196.455683	387.846892	1105.127077	-447.397489	360.014807	1162.572337	-224.433496	231.404050	1230.657537	-332.618334	259.519375	1226.240736	-413.644819	281.544333	1129.703131	-162.411442	278.668292	1064.468271	-510.883970	365.827871	1091.842681	-148.419442	448.470742	1061.014284	-147.208021	504.961316	1005.821374	-114.911673	466.214459	1080.246523	-174.950677	611.233048	897.009223	-137.069229	603.501865	872.115473	-250.749089	563.672941	794.116936	-122.059960	522.838218	717.590858	-138.065866	451.208644	667.609872	-136.497381	535.225778	708.181110	-176.763499	361.129668	578.179360	-143.131359	374.505366	595.637953	-223.018532	273.134674	566.558850	-181.994178	525.829509	436.128043	-198.604297	424.025974	465.787249	-130.219822	448.895209	469.492495	-239.670406	335.986584	937.383536	-526.790023	372.310139	857.909797	-526.502392	405.503256	863.708976	-512.257755	362.379148	769.704451	-528.212771	376.295890	671.524262	-506.951814	376.032334	640.040276	-407.867246	327.517432	581.249566	-529.104725	309.067112	498.130048	-514.634473	247.761419	431.335641	-515.220825	328.835336	491.021540	-479.317106	192.232103	341.026955	-500.935209	209.981366	331.547194	-426.301593	120.888292	354.429234	-457.431935	286.116839	118.962428	-438.279086	203.983578	182.717143	-507.263285	-128.931232	870.000663	-313.572307	32.555213	82.593283	-515.292576	32.506664	82.584606	-115.237321	
1753	8.7650	679.620817	1219.923930	-64.018377	784.411142	1191.704037	-395.377942	740.091457	1241.145182	-228.881139	660.535508	1124.844920	-236.579473	577.159392	974.083154	-27.618351	721.991099	851.679584	-114.512216	667.959463	1040.576924	-612.136622	730.931693	848.701174	-528.317757	219.703779	1205.108074	-370.802274	363.390167	1149.931626	-485.951974	308.492986	1193.384965	-197.640402	388.696239	1108.165979	-448.416542	359.619733	1163.039056	-224.514112	232.786736	1234.410994	-333.071069	261.120928	1230.467344	-413.510943	280.209026	1130.059894	-163.331574	280.298567	1067.871215	-512.171224	364.221723	1090.253163	-148.638449	446.346510	1058.214324	-146.397434	501.460594	1002.111171	-113.832584	464.731583	1077.349047	-173.752229	604.120722	890.093224	-135.088289	598.940673	867.060768	-248.793594	558.893183	786.936894	-120.193849	519.361640	708.974208	-138.288696	449.601307	658.186163	-136.140541	532.963866	701.108358	-175.584355	361.753708	567.706168	-143.515482	374.679371	585.619433	-223.314535	274.402748	552.065915	-182.688960	532.785301	434.176934	-198.114674	429.396925	458.467664	-129.730987	454.408075	463.746211	-238.981865	339.886827	941.051574	-527.382120	377.665198	862.304954	-526.672135	410.709245	868.726819	-512.512619	369.560696	773.837810	-528.420260	383.917364	675.333668	-507.721264	383.707994	644.047132	-408.100685	333.551725	585.376240	-529.730327	312.489476	502.923143	-515.037655	249.305233	438.115761	-516.003270	331.720825	495.176674	-479.358386	190.146816	348.695162	-501.982551	207.510397	338.507896	-426.764890	119.053095	363.975938	-457.673431	277.397365	124.212171	-438.076057	196.857614	189.766480	-507.180465	-128.750856	870.156046	-313.180890	32.561908	82.827596	-515.214127	32.514071	82.561647	-115.172405	
